<?xml version="1.0" standalone="no"?>
<!DOCTYPE svg PUBLIC "-//W3C//DTD SVG 20010904//EN"
 "http://www.w3.org/TR/2001/REC-SVG-20010904/DTD/svg10.dtd">
<svg version="1.0" xmlns="http://www.w3.org/2000/svg"
 width="32.000000pt" height="32.000000pt" viewBox="0 0 32.000000 32.000000"
 preserveAspectRatio="xMidYMid meet">

<g transform="translate(0.000000,32.000000) scale(0.100000,-0.100000)"
fill="#000000" stroke="none">
<path d="M140 273 c-62 -23 -67 -78 -10 -123 44 -35 50 -55 20 -65 -26 -8 -40
1 -40 26 0 10 -3 19 -8 19 -15 0 -52 -32 -52 -45 0 -23 42 -45 88 -45 35 0 49
6 72 29 36 35 32 57 -22 106 -21 20 -37 42 -35 48 6 19 49 21 59 3 12 -21 44
-21 52 0 8 21 8 20 -10 38 -15 16 -82 21 -114 9z"/>
</g>
</svg>
